<svg width="46" height="46" viewBox="0 0 46 46" fill="none" xmlns="http://www.w3.org/2000/svg">
  <rect x="1" y="1" width="44" height="44" rx="10" fill="#0F766E"/>
  <path d="M17.9 32.2 26.9 23.2a3.6 3.6 0 0 0 0-5.1 3.6 3.6 0 0 0-5.1 0l-9 9a3.6 3.6 0 0 0 5.1 5.1Z" fill="white"/>
  <path d="m21.8 20.7 2.5 2.5 1.3-1.3a1.8 1.8 0 0 0-2.6-2.5l-1.2 1.3Z" fill="#F59E0B"/>
  <path d="M29.2 11.6c.1-.4.6-.4.7 0l.4 1.7c0 .1.1.2.2.2l1.7.5c.4.1.4.5 0 .6l-1.7.5c-.1 0-.2.1-.2.2l-.4 1.7c-.1.4-.6.4-.7 0l-.5-1.7c0-.1-.1-.2-.2-.2l-1.7-.5c-.4-.1-.4-.5 0-.6l1.7-.5c.1 0 .2-.1.2-.2l.5-1.7Z" fill="white"/>
</svg>
